<svg width="25" height="29" viewBox="0 0 25 29" fill="none" xmlns="http://www.w3.org/2000/svg">
<path fill-rule="evenodd" clip-rule="evenodd" d="M12.4057 1.90868C10.1277 1.90868 7.94307 2.81359 6.33231 4.42435C4.72155 6.03511 3.81664 8.21977 3.81664 10.4977H1.90796C1.90796 7.71355 3.01397 5.04342 4.98267 3.07471C6.95138 1.10601 9.62151 0 12.4057 0C15.1899 0 17.86 1.10601 19.8287 3.07471C21.7974 5.04342 22.9034 7.71355 22.9034 10.4977H20.9947C20.9947 8.21977 20.0898 6.03511 18.4791 4.42435C16.8683 2.81359 14.6836 1.90868 12.4057 1.90868Z" fill="#323334"/>
<path fill-rule="evenodd" clip-rule="evenodd" d="M0.209366 9.90038C0.29881 9.78896 0.412131 9.69904 0.540968 9.63726C0.669805 9.57549 0.810869 9.54343 0.95375 9.54346H23.8579C24.0007 9.54351 24.1416 9.57562 24.2704 9.6374C24.3991 9.69918 24.5124 9.78907 24.6017 9.90043C24.6911 10.0118 24.7544 10.1418 24.7868 10.2809C24.8193 10.4199 24.8201 10.5645 24.7893 10.7039L21.3041 26.3875C21.1629 27.0235 20.8091 27.5923 20.3011 28C19.7931 28.4078 19.1612 28.6301 18.5098 28.6302H6.30186C5.65044 28.6301 5.01855 28.4078 4.51052 28C4.00249 27.5923 3.6487 27.0235 3.50756 26.3875L0.0223159 10.7039C-0.00830747 10.5648 -0.00740249 10.4206 0.0249644 10.2819C0.0573312 10.1432 0.120339 10.0135 0.209366 9.90229V9.90038ZM2.14286 11.4521L5.37043 25.9733C5.41735 26.1854 5.53522 26.3752 5.70458 26.5112C5.87394 26.6473 6.08463 26.7215 6.30186 26.7215H18.5098C18.727 26.7215 18.9377 26.6473 19.107 26.5112C19.2764 26.3752 19.3943 26.1854 19.4412 25.9733L22.6669 11.4521H2.14476H2.14286Z" fill="#323334"/>
</svg>
